<svg width="18" height="18" viewBox="0 0 18 18" fill="none" xmlns="http://www.w3.org/2000/svg">
<path d="M13.6802 13.6803L13.1499 13.15L13.1499 13.15L13.6802 13.6803ZM13.6802 4.31961L13.1499 4.84994L13.1499 4.84995L13.6802 4.31961ZM4.31949 4.31961L3.78916 3.78928H3.78916L4.31949 4.31961ZM4.31949 13.6803L4.84982 13.15L4.84982 13.15L4.31949 13.6803ZM15.9508 2.04917L15.4205 2.57951V2.57951L15.9508 2.04917ZM2.04917 2.04917L2.5795 2.5795L2.5795 2.5795L2.04917 2.04917ZM2.04917 15.9508L2.57951 15.4205H2.57951L2.04917 15.9508ZM17.25 10.9824C17.25 10.5682 16.9142 10.2324 16.5 10.2324C16.0858 10.2324 15.75 10.5682 15.75 10.9824H17.25ZM10.977 15.75C10.5627 15.75 10.227 16.0858 10.227 16.5C10.227 16.9142 10.5627 17.25 10.977 17.25V15.75ZM7.1298 17.25C7.54401 17.25 7.8798 16.9142 7.8798 16.5C7.8798 16.0858 7.54401 15.75 7.1298 15.75V17.25ZM2.25 10.9824C2.25 10.5682 1.91421 10.2324 1.5 10.2324C1.08579 10.2324 0.75 10.5682 0.75 10.9824H2.25ZM0.75 7.28647C0.75 7.70069 1.08579 8.03647 1.5 8.03647C1.91421 8.03647 2.25 7.70069 2.25 7.28647H0.75ZM7.1298 2.25C7.54401 2.25 7.8798 1.91421 7.8798 1.5C7.8798 1.08579 7.54401 0.75 7.1298 0.75V2.25ZM10.977 0.75C10.5627 0.75 10.227 1.08579 10.227 1.5C10.227 1.91421 10.5627 2.25 10.977 2.25V0.75ZM15.75 7.28647C15.75 7.70069 16.0858 8.03647 16.5 8.03647C16.9142 8.03647 17.25 7.70069 17.25 7.28647H15.75ZM5.21224 14.8001H12.7875V13.3001H5.21224V14.8001ZM12.7875 14.8001C13.3212 14.8001 13.8331 14.5881 14.2105 14.2107L13.1499 13.15C13.0537 13.2461 12.9234 13.3001 12.7875 13.3001V14.8001ZM14.2105 14.2107C14.5879 13.8332 14.8 13.3213 14.8 12.7876H13.3C13.3 12.9235 13.246 13.0539 13.1499 13.15L14.2105 14.2107ZM14.8 12.7876V5.21236H13.3V12.7876H14.8ZM14.8 5.21236C14.8 4.6786 14.5879 4.16671 14.2105 3.78928L13.1499 4.84995C13.246 4.94607 13.3 5.07643 13.3 5.21236H14.8ZM14.2105 3.78929C13.8331 3.41186 13.3212 3.19983 12.7875 3.19983V4.69983C12.9234 4.69983 13.0537 4.75383 13.1499 4.84994L14.2105 3.78929ZM12.7875 3.19983H5.21224V4.69983H12.7875V3.19983ZM5.21224 3.19983C4.67848 3.19983 4.16658 3.41186 3.78916 3.78928L4.84982 4.84995C4.94594 4.75383 5.0763 4.69983 5.21224 4.69983V3.19983ZM3.78916 3.78928C3.41174 4.16671 3.1997 4.6786 3.1997 5.21236H4.6997C4.6997 5.07643 4.7537 4.94606 4.84982 4.84995L3.78916 3.78928ZM3.1997 5.21236V12.7876H4.6997V5.21236H3.1997ZM3.1997 12.7876C3.1997 13.3213 3.41174 13.8332 3.78916 14.2107L4.84982 13.15C4.7537 13.0539 4.6997 12.9235 4.6997 12.7876H3.1997ZM3.78916 14.2107C4.16658 14.5881 4.67848 14.8001 5.21224 14.8001V13.3001C5.0763 13.3001 4.94594 13.2461 4.84982 13.15L3.78916 14.2107ZM14.625 17.25C15.3212 17.25 15.9889 16.9734 16.4812 16.4812L15.4205 15.4205C15.2095 15.6315 14.9234 15.75 14.625 15.75V17.25ZM16.4812 16.4812C16.9734 15.9889 17.25 15.3212 17.25 14.625H15.75C15.75 14.9234 15.6315 15.2095 15.4205 15.4205L16.4812 16.4812ZM17.25 3.375C17.25 2.67881 16.9734 2.01113 16.4812 1.51884L15.4205 2.57951C15.6315 2.79048 15.75 3.07663 15.75 3.375H17.25ZM16.4812 1.51884C15.9889 1.02656 15.3212 0.75 14.625 0.75V2.25C14.9234 2.25 15.2095 2.36853 15.4205 2.57951L16.4812 1.51884ZM3.375 0.75C2.67881 0.75 2.01113 1.02656 1.51884 1.51884L2.5795 2.5795C2.79048 2.36853 3.07663 2.25 3.375 2.25V0.75ZM1.51884 1.51884C1.02656 2.01113 0.75 2.67881 0.75 3.375H2.25C2.25 3.07663 2.36853 2.79048 2.5795 2.5795L1.51884 1.51884ZM0.75 14.625C0.75 15.3212 1.02656 15.9889 1.51884 16.4812L2.57951 15.4205C2.36853 15.2095 2.25 14.9234 2.25 14.625H0.75ZM1.51884 16.4812C2.01113 16.9734 2.67881 17.25 3.375 17.25V15.75C3.07663 15.75 2.79048 15.6315 2.57951 15.4205L1.51884 16.4812ZM17.25 14.625V10.9824H15.75V14.625H17.25ZM14.625 15.75H10.977V17.25H14.625V15.75ZM3.375 17.25H7.1298V15.75H3.375V17.25ZM2.25 14.625V10.9824H0.75V14.625H2.25ZM0.75 3.375V7.28647H2.25V3.375H0.75ZM3.375 2.25H7.1298V0.75H3.375V2.25ZM14.625 0.75H10.977V2.25H14.625V0.75ZM15.75 3.375V7.28647H17.25V3.375H15.75Z" fill="#535B66"/>
</svg>
